<svg xmlns="http://www.w3.org/2000/svg" viewBox="0 0 100 100">
  <!-- Background -->
  <rect width="100" height="100" rx="14" fill="#1b4f72"/>

  <!-- Left antler -->
  <polyline points="38,40 30,22 20,10" fill="none" stroke="white" stroke-width="5" stroke-linecap="round" stroke-linejoin="round"/>
  <line x1="30" y1="22" x2="26" y2="11" stroke="white" stroke-width="5" stroke-linecap="round"/>

  <!-- Right antler -->
  <polyline points="62,40 70,22 80,10" fill="none" stroke="white" stroke-width="5" stroke-linecap="round" stroke-linejoin="round"/>
  <line x1="70" y1="22" x2="74" y2="11" stroke="white" stroke-width="5" stroke-linecap="round"/>

  <!-- Head -->
  <ellipse cx="50" cy="46" rx="13" ry="11" fill="white"/>

  <!-- Neck + body merged -->
  <path d="M37 54 L34 65 Q34 80 50 82 Q66 80 66 65 L63 54 Z" fill="white"/>

  <!-- Front legs -->
  <rect x="36" y="78" width="8" height="20" rx="4" fill="white"/>
  <rect x="47" y="78" width="8" height="20" rx="4" fill="white"/>

  <!-- Back legs -->
  <rect x="58" y="78" width="8" height="20" rx="4" fill="white"/>

  <!-- Tail hint -->
  <ellipse cx="67" cy="63" rx="4" ry="6" fill="white"/>
</svg>
